<?xml version="1.0" encoding="utf-8"?>
<!-- Generator: Adobe Illustrator 21.0.2, SVG Export Plug-In . SVG Version: 6.00 Build 0)  -->
<svg version="1.1" id="Layer_1" xmlns="http://www.w3.org/2000/svg" xmlns:xlink="http://www.w3.org/1999/xlink" x="0px" y="0px"
	 viewBox="0 0 115.8 100" style="enable-background:new 0 0 115.8 100;" xml:space="preserve">
<style type="text/css">
	.st0{fill:#202020;}
</style>
<g>
	<path class="st0" d="M92.7,44.1L92.7,44.1c0.1,0,0.2,0,0.2,0c0,0,0,0,0,0c-2-0.5-5.7-1.3-6.8-1.6c-0.1,0.3-0.3,0.5-0.4,0.7
		c-0.1,0.5-0.3,1.1-0.4,1.6c-0.8,2.8-1.9,5.7-3.4,8.6c-2.8,5.7-7,10.8-11,14.6l-0.2,0.2c0,0,0,0,0-0.1c-0.3-1.3-0.5-2.5-0.8-3.7
		c-1-4.7-1.9-8.8-2.7-12.2c-1.5-6.8-2.4-10.9-2.6-12.4l0,0c-0.3-1.4-0.5-2.7-0.7-3.9c0-0.1,0-0.3-0.1-0.4c-0.1-0.1-0.1-0.3-0.2-0.4
		c-2.2,0.3-5.8,0.9-6.7,1c0,0.1,0,0.2,0,0.3l0,0.1l0,0.4c0.1,0.5,0.1,0.9,0.2,1.4c0.2,1.7,0.3,2.9,0.3,3.8c0.1,1.7,0.1,2,0.1,2
		s0.1,2.6-0.1,7.1c-0.1,2.2-0.3,5-0.6,8c-0.2,1.5-0.4,3.2-0.6,4.9c-0.1,0.9-0.3,1.7-0.4,2.6l-0.2,1C53.9,64.9,52,62,50,59.1
		C45,51.5,39.7,43.7,34.8,36.3l0,0l-0.5-0.7l0,0l0,0l0,0c-1.1,0.6-0.3,0.2,0.2-0.1c0,0,0,0,0,0c-0.7,0.4-2.4,1.4-6.1,3.7l0,0.1
		l0.1,0.2l0,0c-0.1,0.1-0.2,0.1-0.3,0.2c0,0,0,0,0,0c0.1,0,0.2-0.1,0.3-0.2l0.2,0.3l0.7,1.5c0.5,1,1,1.9,1.4,2.9
		c0.9,1.9,1.8,3.8,2.6,5.7c0.8,1.8,1.5,3.7,2.2,5.4c0.3,0.9,0.6,1.8,0.9,2.6c0.3,0.7,0.3,1,0.5,1.6c1.2,3.8,1.8,6.9,2.1,8.7
		c0.9,5,1.3,8.9,1.8,12.6c0.4,3.8,0.8,7.5,1,12.1c2-4.1,3.3-7.8,4-11.9c0.7-4.1,0.9-8.5-0.1-14c-0.1-0.6-0.3-1.4-0.4-2.2
		c2.7,4,5.4,8,7.9,11.8c1.2,1.8,2.4,3.5,3.5,5.1c0.6,0.8,1.1,1.6,1.7,2.4l0.4,0.6l0.2,0.3l0.1,0.2c0,0.1,0-0.1,0.1-0.1l0.3-1.5
		c0.8-4,1.6-7.6,2.3-11.3c0.2-0.9,0.4-1.8,0.5-2.8c0.1-0.6,0.2-1.1,0.3-1.7c0.1-0.7,0.2-1.4,0.3-2.1c0,0.1,0,0.1,0,0.2
		c0.2,1.2,0.5,2.4,0.7,3.6c0.5,2.3,0.9,5.1,1.4,7.8c0.1,0.7,0.2,1.4,0.3,2.1l0.2,1l0.1,0.5l0,0.3c0,0.1,0,0.2,0.1,0.1
		c1.1-0.9,2.1-1.8,3.2-2.7c1.1-0.9,2.2-1.8,3.3-2.7c0.6-0.5,1.1-0.9,1.7-1.4l1.5-1.3c2.1-2,4.4-4.4,6.5-7.1
		c-0.7,9.8,0.7,16,3.7,24.1c0.5-4.5,1.1-8.2,1.7-12.1c0.5-3.8,1-7.8,1.6-13c0.3-2.3,0.7-6.5,2.1-13.8l0,0c0.1-0.3,0.1-0.7,0.3-1.4
		c0.2-1.2,0.5-2.5,0.8-3.8c0.1-0.3,0.2-0.7,0.2-1l0.1-0.5L92.7,44.1L92.7,44.1C92.8,44.2,92.8,44.2,92.7,44.1L92.7,44.1z"/>
	<polygon class="st0" points="55.8,67.7 55.8,67.7 55.8,67.7 	"/>
	<path class="st0" d="M70.7,68.1C70.7,68.1,70.7,68.1,70.7,68.1C70.7,68.2,70.7,68.2,70.7,68.1z"/>
	<path class="st0" d="M29.5,31c1.4-2.2,2-5,2-7.6c0-5-3.8-8.6-8.7-9.4c-3.1-0.7-5.4,1.4-5.5,3.8c-0.5-0.1-0.9-0.1-1.4,0.1
		c-0.7,0.1-1.4,0.6-1.9,1c-0.5,0.4-1,1-1.3,1.7c-0.4,0.8-1,2.5-1,4.6c0,2.1,0.7,4.6,2.4,6.6C17.9,36.6,26.3,36,29.5,31z M21.3,20.7
		c0.2,0,0.7,0.2,1.3,0.7c0.6,0.5,1.3,1.4,1.6,2.4c0.1,0.3,0.2,0.5,0.2,0.8c-0.1,0.5-0.3,0.9-0.5,1.3c-0.5,0.9-1.1,1.5-1.5,1.7
		c-0.4,0.2-0.7,0.3-0.7,0.3c-0.6-0.1-1.2-0.4-1.6-0.9c-0.6-0.5-0.8-1.1-1-1.3c-0.1-0.2-0.2-0.4-0.4-0.5c0,0,0-0.1,0-0.1
		c0-0.8,0.2-1.3,0.3-1.6c0.1-0.3,0.1-0.5,0.2-0.8c0-0.3-0.1-0.5-0.2-0.8c-0.1-0.6-0.1-1.5,0.6-2.5c0.2,0.1,0.5,0.3,0.6,0.4
		C20.8,20.3,21,20.6,21.3,20.7z"/>
	<path class="st0" d="M104,24.8c-0.1-1.8-0.8-3.6-2.2-5.3c-1.7-2-3.9-2.2-5.8-1.1c-1.1-1.4-2.5-2.1-4.7-1.7
		c-0.8,0.2-2.6,0.8-4.2,2.4c-1.6,1.5-2.7,4-2.7,6.5c0,0.2,0,0.4,0.1,0.6c0,0.1,0,0.2,0,0.3c0,2.2,1,4.7,2.9,6.4
		c1.8,1.7,4,2.5,5.7,2.6c1.7,0.2,2.7-0.1,2.7-0.1C100.8,34.2,104.4,29.6,104,24.8z M93,23.4c0.7-0.2,1.5-0.9,2.7-2
		c0.1,0.3,0.1,0.6,0.2,0.8c0.1,0.7,0.2,1.2,0.5,1.6c0.2,0.2,0.4,0.6,0.6,1.2c0.1,0.6,0,1.5-0.3,2.1c-0.2,0.4-0.5,0.7-0.8,1
		c-0.3,0.2-0.5,0.3-0.8,0.4c-1.3,0.4-2.7-0.5-2.6-0.5c0,0-0.3-0.2-0.6-0.6c-0.2-0.3-0.4-0.7-0.5-1.2c0-0.5,0.1-0.8,0.3-1.1
		c0.1-0.3,0.2-0.6,0.3-0.9c0-0.1,0.1-0.1,0.1-0.2C92.3,23.7,92.7,23.5,93,23.4z"/>
	<path class="st0" d="M50.7,17.8c0,0.1,0,0.2,0,0.3c0,0.1,0,0.2,0.1,0.3c0,0,0,0,0,0.1c0.1,0.5,0.3,1.3,0.7,2.2
		c0.8,1.8,2.5,3.6,4.7,4.6c1.1,0.5,2.4,0.8,3.6,0.9c0.6,0.1,1.2,0.2,2,0.1c0.5-0.1,1.5-0.3,2.6-0.8c1.5-0.6,2.6-1.5,3.1-2
		c0.7-0.7,1.1-1.5,1.3-2.2c0.5-1,0.9-2.1,1-3.2c0.3-2.4-0.3-4.8-1.3-6.3c-0.4-0.8-1-1.4-1.3-1.7c-0.4-0.4-0.6-0.6-0.6-0.6
		s-0.2-0.2-0.7-0.5c-0.4-0.3-1.1-0.7-2-1.1c-0.6-0.2-1.2-0.3-1.9-0.4c-0.2,0-0.3-0.1-0.5-0.1c-2.2-0.3-5,0.5-6.9,2
		c-1.6,1.2-2.7,2.8-3.2,4.3c-0.1,0.2-0.1,0.4-0.2,0.6c0,0.1-0.1,0.3-0.1,0.4c0,0,0,0.1,0,0.1c-0.3,1-0.4,1.8-0.3,2.4
		C50.6,17.3,50.7,17.5,50.7,17.8z M62,14.7c0.1,0.1,0.2,0.1,0.3,0.1c0.1,0.1,0.2,0.2,0.3,0.4c0.2,0.4,0.5,1.2,0.4,1.9
		c-0.1,0.8-0.5,1.4-1,1.8c-0.1,0.1-0.2,0.1-0.3,0.2c-0.1,0-0.1,0-0.1,0.1c-0.7,0.2-1.6,0.1-2.3-0.2c-0.8-0.3-1.3-1-1.4-1.2
		c-0.2-0.3-0.2-0.6-0.2-0.6s0-0.2,0.1-0.5c0.1-0.2,0.1-0.4,0.3-0.7c0.3-0.6,1-1.2,1.8-1.5c0.4-0.1,0.8-0.2,1.1-0.2
		C61.3,14.3,61.7,14.6,62,14.7z"/>
</g>
</svg>
